<?xml version="1.0" encoding="UTF-8"?>
<svg width="16px" height="13px" viewBox="0 0 16 13" version="1.1" xmlns="http://www.w3.org/2000/svg" xmlns:xlink="http://www.w3.org/1999/xlink">
    <!-- Generator: Sketch 63.1 (92452) - https://sketch.com -->
    <title>Icon/Content/Small/Blog</title>
    <desc>Created with Sketch.</desc>
    <g id="Symbols" stroke="none" stroke-width="1" fill="none" fill-rule="evenodd">
        <g id="Icons/Content/Small/Blog" fill="#3F5D75">
            <g id="Icon/Content/Small/Blog">
                <path d="M14,10 L14,2 L5,2 L5,11 L9.5,11 L13,11 C13.551,11 14,10.551 14,10 Z M15,0 C15.552,0 16,0.448 16,1 L16,10 C16,11.654 14.654,13 13,13 L9.5,13 L4,13 L3,13 C1.346,13 0,11.654 0,10 L0,3 C0,2.448 0.448,2 1,2 C1.552,2 2,2.448 2,3 L2,10 C2,10.551 2.449,11 3,11 L3,1 C3,0.448 3.448,0 4,0 L15,0 Z" id="Fill-1"></path>
                <polygon id="Fill-3" points="6 6 13 6 13 3 6 3"></polygon>
                <polygon id="Fill-5" points="6 8 13 8 13 7 6 7"></polygon>
                <polygon id="Fill-6" points="6 10 13 10 13 9 6 9"></polygon>
            </g>
        </g>
    </g>
</svg>