<?xml version="1.0" encoding="UTF-8"?>
<svg width="26px" height="29px" viewBox="0 0 26 29" version="1.1" xmlns="http://www.w3.org/2000/svg" xmlns:xlink="http://www.w3.org/1999/xlink">
    <!-- Generator: Sketch 63.1 (92452) - https://sketch.com -->
    <title>Icons/Utilities/Large/Date</title>
    <desc>Created with Sketch.</desc>
    <g id="Icons/Utilities/Large/Date" stroke="none" stroke-width="1" fill="none" fill-rule="evenodd">
        <g id="Icon/Utilities/Large/Date" fill="#3F5D75">
            <path d="M3.5,26 C3.225,26 3,25.776 3,25.5 L3,12 L23,12 L23,19.879 L22.879,20 L19,20 C17.895,20 17,20.895 17,22 L17,25.879 L16.879,26 L3.5,26 Z M22.5,4 L20,4 L20,1.5 C20,0.671 19.328,0 18.5,0 C17.672,0 17,0.671 17,1.5 L17,4 L9,4 L9,1.5 C9,0.671 8.328,0 7.5,0 C6.672,0 6,0.671 6,1.5 L6,4 L3.5,4 C1.57,4 0,5.57 0,7.5 L0,25.5 C0,27.43 1.57,29 3.5,29 L17.5,29 C17.897,29 18.279,28.842 18.561,28.561 L25.561,21.561 C25.842,21.279 26,20.898 26,20.5 L26,7.5 C26,5.57 24.43,4 22.5,4 L22.5,4 Z" id="Fill-140"></path>
            <path d="M8,14 L6,14 C5.448,14 5,14.448 5,15 L5,17 C5,17.552 5.448,18 6,18 L8,18 C8.552,18 9,17.552 9,17 L9,15 C9,14.448 8.552,14 8,14" id="Fill-142"></path>
            <path d="M14,14 L12,14 C11.448,14 11,14.448 11,15 L11,17 C11,17.552 11.448,18 12,18 L14,18 C14.552,18 15,17.552 15,17 L15,15 C15,14.448 14.552,14 14,14" id="Fill-144"></path>
            <path d="M18,18 L20,18 C20.552,18 21,17.552 21,17 L21,15 C21,14.448 20.552,14 20,14 L18,14 C17.448,14 17,14.448 17,15 L17,17 C17,17.552 17.448,18 18,18" id="Fill-146"></path>
            <path d="M8,20 L6,20 C5.448,20 5,20.448 5,21 L5,23 C5,23.552 5.448,24 6,24 L8,24 C8.552,24 9,23.552 9,23 L9,21 C9,20.448 8.552,20 8,20" id="Fill-148"></path>
            <path d="M14,20 L12,20 C11.448,20 11,20.448 11,21 L11,23 C11,23.552 11.448,24 12,24 L14,24 C14.552,24 15,23.552 15,23 L15,21 C15,20.448 14.552,20 14,20" id="Fill-150"></path>
        </g>
    </g>
</svg>