<?xml version="1.0" encoding="UTF-8"?>
<svg width="12px" height="14px" viewBox="0 0 12 14" version="1.1" xmlns="http://www.w3.org/2000/svg" xmlns:xlink="http://www.w3.org/1999/xlink">
    <!-- Generator: Sketch 63.1 (92452) - https://sketch.com -->
    <title>Icons/Actions/Small/Duplicate</title>
    <desc>Created with Sketch.</desc>
    <g id="Icons/Actions/Small/Duplicate" stroke="none" stroke-width="1" fill="none" fill-rule="evenodd">
        <g id="Icon/Actions/Small/Duplicate" fill="#3F5D75">
            <path d="M12,12 L12,5 C12,3.897 11.103,3 10,3 L5,3 C3.897,3 3,3.897 3,5 L3,12 C3,13.103 3.897,14 5,14 L10,14 C11.103,14 12,13.103 12,12" id="Fill-13"></path>
            <path d="M9,0 L2,0 C0.897,0 0,0.897 0,2 L0,10 C0,10.552 0.448,11 1,11 C1.552,11 2,10.552 2,10 L2,3 C2,2.449 2.449,2 3,2 L9,2 C9.552,2 10,1.552 10,1 C10,0.448 9.552,0 9,0" id="Fill-15"></path>
        </g>
    </g>
</svg>