<?xml version="1.0" encoding="UTF-8"?>
<svg width="17px" height="16px" viewBox="0 0 17 16" version="1.1" xmlns="http://www.w3.org/2000/svg" xmlns:xlink="http://www.w3.org/1999/xlink">
    <!-- Generator: Sketch 63.1 (92452) - https://sketch.com -->
    <title>Icons/Utilities/Small/Image Gallery</title>
    <desc>Created with Sketch.</desc>
    <g id="Icons/Utilities/Small/Image-Gallery" stroke="none" stroke-width="1" fill="none" fill-rule="evenodd">
        <g id="Icon/Utilities/Small/Image-Gallery" fill="#3F5D75">
            <path d="M6.8394,13.6988 L6.8394,6.6988 L14.8394,6.6988 L14.8404,13.6988 L6.8394,13.6988 Z M14.8394,4.6988 L6.8394,4.6988 C5.7354,4.6988 4.8394,5.5958 4.8394,6.6988 L4.8394,13.6988 C4.8394,14.8018 5.7354,15.6988 6.8394,15.6988 L14.8394,15.6988 C15.9424,15.6988 16.8394,14.8018 16.8394,13.6988 L16.8394,6.6988 C16.8394,5.5958 15.9424,4.6988 14.8394,4.6988 L14.8394,4.6988 Z" id="Fill-9"></path>
            <path d="M13.5738,7.5792 C13.4598,7.5222 13.3278,7.5612 13.2438,7.6732 L10.7218,11.0402 L9.4488,9.8342 C9.3828,9.7722 9.2998,9.7462 9.2168,9.7632 C9.1348,9.7792 9.0618,9.8372 9.0148,9.9212 L7.8148,12.1252 C7.7548,12.2382 7.7488,12.3832 7.8008,12.5032 C7.8518,12.6212 7.9548,12.6962 8.0648,12.6962 L13.4658,12.6962 C13.6308,12.6962 13.7648,12.5322 13.7648,12.3292 L13.7648,7.9212 C13.7648,7.7692 13.6888,7.6332 13.5738,7.5792" id="Fill-11"></path>
            <path d="M10.5435,2.6988 L2.5435,2.6988 L2.5415,9.6988 L2.5435,9.6988 C3.0955,9.6988 3.5435,10.1468 3.5435,10.6988 C3.5435,11.2508 3.0955,11.6988 2.5435,11.6988 C1.4395,11.6988 0.5435,10.8018 0.5435,9.6988 L0.5435,2.6988 C0.5435,1.5958 1.4395,0.6988 2.5435,0.6988 L10.5435,0.6988 C11.6465,0.6988 12.5435,1.5958 12.5435,2.6988 C12.5435,3.2508 12.0965,3.6988 11.5435,3.6988 C10.9905,3.6988 10.5435,3.2508 10.5435,2.6988" id="Fill-13"></path>
        </g>
    </g>
</svg>